<?xml version="1.0" standalone="no"?>
<!DOCTYPE svg PUBLIC "-//W3C//DTD SVG 20010904//EN"
 "http://www.w3.org/TR/2001/REC-SVG-20010904/DTD/svg10.dtd">
<svg version="1.0" xmlns="http://www.w3.org/2000/svg"
 width="1024.000000pt" height="1024.000000pt" viewBox="0 0 1024.000000 1024.000000"
 preserveAspectRatio="xMidYMid meet">
<metadata>
Created by potrace 1.14, written by Peter Selinger 2001-2017
</metadata>
<g transform="translate(0.000000,1024.000000) scale(0.100000,-0.100000)"
fill="#000000" stroke="none">
<path d="M2890 7141 c-118 -36 -223 -141 -250 -251 -6 -25 -21 -129 -33 -232
l-23 -188 1361 0 1360 0 39 313 c21 171 41 324 43 340 l6 27 -1239 -1 c-682 0
-1250 -4 -1264 -8z"/>
<path d="M6270 7141 c-86 -27 -166 -96 -201 -177 -15 -33 -72 -471 -254 -1954
-129 -1050 -235 -1912 -235 -1915 0 -8 680 -6 681 3 0 4 93 763 207 1687 l207
1680 1783 3 1782 2 0 340 0 340 -1972 -1 c-1085 0 -1984 -4 -1998 -8z"/>
<path d="M2456 5423 c-10 -60 -76 -606 -76 -625 0 -17 64 -18 1200 -18 953 0
1200 3 1200 13 0 6 18 154 40 327 22 173 40 321 40 328 0 9 -246 12 -1199 12
l-1199 0 -6 -37z"/>
<path d="M2250 3760 c0 -5 -18 -154 -40 -332 -22 -178 -40 -326 -40 -330 0 -5
612 -8 1359 -8 l1359 0 6 38 c12 73 76 600 76 621 l0 21 -1360 0 c-854 0
-1360 -4 -1360 -10z"/>
</g>
</svg>
